<svg id="Layer_1" data-name="Layer 1" xmlns="http://www.w3.org/2000/svg" viewBox="0 0 491.98 99"><defs><style>.cls-1{fill:#e2231a;}.cls-2{fill:#646569;}</style></defs><title>Navigator</title><path class="cls-1" d="M44.64,50.07,64.18,76H82.24L44.64,26.09,15.74,64.46A7.21,7.21,0,0,0,21.5,76h0a7.21,7.21,0,0,0,5.76-2.87Z"/><path class="cls-1" d="M88.9,51,69.36,25.1H51.3L88.9,75l28.9-38.37A7.21,7.21,0,0,0,112,25.1h0A7.21,7.21,0,0,0,106.27,28Z"/><polygon class="cls-2" points="164.34 57.82 146.05 34.56 141.8 34.56 141.8 66.56 146.54 66.56 146.54 42.73 165.09 66.3 165.3 66.56 169.07 66.56 169.07 34.56 164.34 34.56 164.34 57.82"/><polygon class="cls-2" points="236.84 59.84 226.4 34.56 221.06 34.56 234.64 66.36 234.82 66.78 238.78 66.78 252.53 34.56 247.32 34.56 236.84 59.84"/><rect class="cls-2" x="265.9" y="34.56" width="4.82" height="32"/><path class="cls-2" d="M300.94,53.3h9.32v6.6a13.77,13.77,0,0,1-8.15,2.71c-6.84,0-11.44-4.84-11.44-12.14,0-6.66,4.81-11.88,11-11.88a12.35,12.35,0,0,1,8.87,3.33l.52.45,3.12-3.67-.52-.44A16.8,16.8,0,0,0,301.76,34c-9,0-16,7.26-16,16.52v.09c0,9.68,6.69,16.43,16.26,16.43a19.14,19.14,0,0,0,12.75-4.86L315,62V48.82h-14Z"/><polygon class="cls-2" points="367.29 39.12 377.57 39.12 377.57 66.56 382.44 66.56 382.44 39.12 392.73 39.12 392.73 34.56 367.29 34.56 367.29 39.12"/><path class="cls-2" d="M419.47,34a16.26,16.26,0,0,0-16.35,16.52v.09a16,16,0,0,0,16.26,16.43,16.28,16.28,0,0,0,16.35-16.61A16,16,0,0,0,419.47,34Zm0,28.48c-6.5,0-11.39-5.14-11.39-12s4.86-11.88,11.31-11.88,11.39,5.14,11.39,12v.09C430.78,57.41,425.92,62.52,419.47,62.52Z"/><path class="cls-2" d="M468.2,53.8c4.91-1.26,7.81-4.7,7.81-9.45a9.1,9.1,0,0,0-2.57-6.52c-2.1-2.11-5.37-3.26-9.19-3.26H450.41v32h4.82V54.65H463l8.88,11.9h6Zm-13-14.68H464c4.54,0,7.15,2,7.15,5.44s-2.82,5.62-7.19,5.62h-8.72Z"/><polygon class="cls-2" points="198.69 41.27 209.13 66.56 214.47 66.56 200.9 34.76 200.72 34.34 196.76 34.34 183 66.56 188.21 66.56 198.69 41.27"/><polygon class="cls-2" points="343.64 40.97 354.08 66.25 359.42 66.25 345.84 34.45 345.67 34.04 341.7 34.04 327.95 66.25 333.16 66.25 343.64 40.97"/></svg>